# xmcd
#
# Track frame offsets: 
#        150
#        13037
#        28480
#        43349
#        55715
#        69392
#        85585
#        98008
#        114698
#        127111
#        139929
#        155757
#        169485
#        185222
#        199589
#        215235
#        238150
#        258012
#        273370
#        295779
#        319178
#
# Disc length: 4549 seconds
#
# Revision: 2
# Processed by: cddbd v1.5.2PL0 Copyright (c) Steve Scherf et al.
# Submitted via: ExactAudioCopy v0.99pb4
#
DISCID=4811c315
DTITLE=Tal Farlow - The Complete Verve Tal Farlow Sessions CD 01
DYEAR=2004
DGENRE=Jazz
TTITLE0=Tenderly
TTITLE1=I Remember You
TTITLE2=Skylark
TTITLE3=If There's Someone Lovelier Than You
TTITLE4=With The Wind And The Rain In Your Hair (10'' LP)
TTITLE5=My Old Flame
TTITLE6=Gibson Boy
TTITLE7=You And The Night And The Music
TTITLE8=Love Nest
TTITLE9=Blues In The Closet
TTITLE10=Everything I've Got
TTITLE11=With The Wind And The Rain In Your Hair (12'' LP)
TTITLE12=Everything I've Got (alt. take)
TTITLE13=I Like To Recognize The Tune
TTITLE14=Strike Up The Band
TTITLE15=Autumn In New York
TTITLE16=And She Remembers Me
TTITLE17=Little Girl Blue
TTITLE18=Have You Met Miss Jones?
TTITLE19=Tal's Blues
TTITLE20=Cherokee
EXTD=YEAR: 2004
EXTT0=
EXTT1=
EXTT2=
EXTT3=
EXTT4=
EXTT5=
EXTT6=
EXTT7=
EXTT8=
EXTT9=
EXTT10=
EXTT11=
EXTT12=
EXTT13=
EXTT14=
EXTT15=
EXTT16=
EXTT17=
EXTT18=
EXTT19=
EXTT20=
PLAYORDER=
